{"title":"Lahoriye (2017) 720p WebHD-Rip x264 AAC Mafiaking M2Tv","magnet":"magnet:?xt=urn:btih:08d80eb410ed137570684fae52dcdc2bf90975aa&dn=Lahoriye+%282017%29+720p+WebHD-Rip+x264+AAC+Mafiaking+M2Tv&tr=udp%3A%2F%2Ftracker.leechers-paradise.org%3A6969&tr=udp%3A%2F%2Fzer0day.ch%3A1337&tr=udp%3A%2F%2Fopen.demonii.com%3A1337&tr=udp%3A%2F%2Ftracker.coppersurfer.tk%3A6969&tr=udp%3A%2F%2Fexodus.desync.com%3A6969","uploader":"mafiaaking","categoryP":"video","categoryS":"movies","size":"1101987688","seeders":"10","leechers":"87","description":"Lahoriye (2017) - 720p - WebHD-Rip - punjabi - x264 - AAC - 2.0 - ESubs - Mafiaking - M2Tv\r\n\r\nIMDB=http://www.imdb.com/title/tt6882872/\r\n\r\nRatings: 8.2/10\r\n\r\nGenere:      Drama\r\n\r\nGeneral\r\nComplete name               : Lahoriye (2017) - 720p - WebHD-Rip - punjabi - x264 - AAC - 2.0 - ESubs - Mafiaking - M2Tv.mkv\r\nFormat                      : Matroska\r\nFile size                   : 1.02 GiB\r\nDuration                    : 2 h 15 min\r\nOverall bit rate            : 1 079 kb/s\r\n\r\nVideo\r\nID                          : 1\r\nFormat                      : AVC\r\nCodec ID                    : V_MPEG4/ISO/AVC\r\nDuration                    : 2 h 15 min\r\nBit rate                    : 951 kb/s\r\nWidth                       : 1 280 pixels\r\nHeight                      : 720 pixels\r\nFrame rate                  : 24.000 FPS\r\nStream size                 : 922 MiB (88%)\r\nTitle                       : Mafiaking\r\nLanguage                    : Panjabi\r\n\r\nAudio\r\nID                          : 2\r\nFormat                      : AAC\r\nDuration                    : 2 h 15 min\r\nBit rate                    : 126 kb/s\r\nChannel(s)                  : 2 channels\r\nStream size                 : 122 MiB (12%)\r\nTitle                       : Mafiaking\r\nLanguage                    : Panjabi\r\n\r\nScreens:-\r\n <a href=\"\nhttps://www.lookimg.com/image/2f4dq\" rel=\"nofollow\" target=\"_NEW\">\nhttps://www.lookimg.com/image/2f4dq</a> <a href=\"\nhttps://www.lookimg.com/image/2fRCQ\" rel=\"nofollow\" target=\"_NEW\">\nhttps://www.lookimg.com/image/2fRCQ</a> <a href=\"\nhttps://www.lookimg.com/image/2fSaW\" rel=\"nofollow\" target=\"_NEW\">\nhttps://www.lookimg.com/image/2fSaW</a> <a href=\"\nhttps://www.lookimg.com/image/2f1oh\" rel=\"nofollow\" target=\"_NEW\">\nhttps://www.lookimg.com/image/2f1oh</a> <a href=\"\nhttps://www.lookimg.com/image/2f5Vr\" rel=\"nofollow\" target=\"_NEW\">\nhttps://www.lookimg.com/image/2f5Vr</a> <a href=\"\nhttps://www.lookimg.com/image/2fF1j\" rel=\"nofollow\" target=\"_NEW\">\nhttps://www.lookimg.com/image/2fF1j</a> <a href=\"\nhttps://www.lookimg.com/image/2fIAo\" rel=\"nofollow\" target=\"_NEW\">\nhttps://www.lookimg.com/image/2fIAo</a> <a href=\"\nhttps://www.lookimg.com/image/2fJeH\" rel=\"nofollow\" target=\"_NEW\">\nhttps://www.lookimg.com/image/2fJeH</a> <a href=\"\nhttps://www.lookimg.com/image/2fapV\" rel=\"nofollow\" target=\"_NEW\">\nhttps://www.lookimg.com/image/2fapV</a> <a href=\"\nhttps://www.lookimg.com/image/2fyvK\" rel=\"nofollow\" target=\"_NEW\">\nhttps://www.lookimg.com/image/2fyvK</a> <a href=\"\nhttps://www.lookimg.com/image/2h9ds\" rel=\"nofollow\" target=\"_NEW\">\nhttps://www.lookimg.com/image/2h9ds</a> <a href=\"\nhttps://www.lookimg.com/image/2hPCc\" rel=\"nofollow\" target=\"_NEW\">\nhttps://www.lookimg.com/image/2hPCc</a> <a href=\"\nhttps://www.lookimg.com/image/2hQrz\" rel=\"nofollow\" target=\"_NEW\">\nhttps://www.lookimg.com/image/2hQrz</a> <a href=\"\nhttps://www.lookimg.com/image/2hvo3\" rel=\"nofollow\" target=\"_NEW\">\nhttps://www.lookimg.com/image/2hvo3</a> <a href=\"\nhttps://www.lookimg.com/image/2h7wM\" rel=\"nofollow\" target=\"_NEW\">\nhttps://www.lookimg.com/image/2h7wM</a>","last_updated":"2017-07-16T12:01:22.160Z","parsed":{"xt":"urn:btih:08d80eb410ed137570684fae52dcdc2bf90975aa","dn":"Lahoriye (2017) 720p WebHD-Rip x264 AAC Mafiaking M2Tv","tr":["udp://exodus.desync.com:6969","udp://open.demonii.com:1337","udp://tracker.coppersurfer.tk:6969","udp://tracker.leechers-paradise.org:6969","udp://zer0day.ch:1337"],"infoHash":"08d80eb410ed137570684fae52dcdc2bf90975aa","infoHashBuffer":{"type":"Buffer","data":[8,216,14,180,16,237,19,117,112,104,79,174,82,220,220,43,249,9,117,170]},"name":"Lahoriye (2017) 720p WebHD-Rip x264 AAC Mafiaking M2Tv","announce":["udp://exodus.desync.com:6969","udp://open.demonii.com:1337","udp://tracker.coppersurfer.tk:6969","udp://tracker.leechers-paradise.org:6969","udp://zer0day.ch:1337"],"urlList":[]}}